<?xml version="1.0" encoding="UTF-8" standalone="no"?>
<svg
   width="7332"
   height="1903"
   xml:space="preserve"
   overflow="hidden"
   version="1.1"
   id="svg164"
   sodipodi:docname="gameoflife_vector_logo.svg"
   inkscape:export-filename="gameoflife_vector_logo_real.svg"
   inkscape:export-xdpi="96"
   inkscape:export-ydpi="96"
   xmlns:inkscape="http://www.inkscape.org/namespaces/inkscape"
   xmlns:sodipodi="http://sodipodi.sourceforge.net/DTD/sodipodi-0.dtd"
   xmlns="http://www.w3.org/2000/svg"
   xmlns:svg="http://www.w3.org/2000/svg"><sodipodi:namedview
     id="namedview166"
     pagecolor="#ffffff"
     bordercolor="#000000"
     borderopacity="0.25"
     inkscape:showpageshadow="2"
     inkscape:pageopacity="0.0"
     inkscape:pagecheckerboard="0"
     inkscape:deskcolor="#d1d1d1"
     showgrid="false" /><defs
     id="defs104"><clipPath
       id="clip0"><rect
         x="715"
         y="1663"
         width="7337"
         height="1957"
         id="rect101" /></clipPath></defs><g
     clip-path="url(#clip0)"
     transform="translate(-717,-1665)"
     id="g162"><path
       d="m 2865,2106 c 0,-243.56 196.99,-441 440,-441 243.01,0 440,197.44 440,441 0,243.56 -196.99,441 -440,441 -243.01,0 -440,-197.44 -440,-441 z"
       fill="#000000"
       fill-rule="evenodd"
       fill-opacity="1"
       id="path106" /><text
       fill="#ffffff"
       fill-opacity="1"
       font-family="'LED pixel Circle', 'LED pixel Circle_MSFontService', sans-serif"
       font-style="normal"
       font-variant="normal"
       font-weight="400"
       font-stretch="normal"
       font-size="293px"
       text-anchor="start"
       direction="ltr"
       writing-mode="lr-tb"
       unicode-bidi="normal"
       text-decoration="none"
       transform="translate(3211.23,2175)"
       id="text108"
       style="text-decoration:none;text-decoration-line:none">E</text><path
       d="m 1791,2106 c 0,-243.56 197.22,-441 440.5,-441 243.28,0 440.5,197.44 440.5,441 0,243.56 -197.22,441 -440.5,441 -243.28,0 -440.5,-197.44 -440.5,-441 z"
       fill="#000000"
       fill-rule="evenodd"
       fill-opacity="1"
       id="path110" /><g
       aria-label="H"
       transform="translate(2098.32,2258)"
       id="text112"
       style="font-size:416px;font-family:'LED pixel Circle', 'LED pixel Circle_MSFontService', sans-serif;fill:#ffffff"><path
         d="m 41.6,-274.56 c 11.648,0 20.8,-9.152 20.8,-20.8 0,-11.648 -9.152,-20.8 -20.8,-20.8 -11.648,0 -20.8,9.152 -20.8,20.8 0,11.648 9.152,20.8 20.8,20.8 z m 183.04,0 c 11.648,0 20.8,-9.152 20.8,-20.8 0,-11.648 -9.152,-20.8 -20.8,-20.8 -11.648,0 -20.8,9.152 -20.8,20.8 0,11.648 9.152,20.8 20.8,20.8 z M 41.6,-228.8 c 11.648,0 20.8,-9.152 20.8,-20.8 0,-11.648 -9.152,-20.8 -20.8,-20.8 -11.648,0 -20.8,9.152 -20.8,20.8 0,11.648 9.152,20.8 20.8,20.8 z m 183.04,0 c 11.648,0 20.8,-9.152 20.8,-20.8 0,-11.648 -9.152,-20.8 -20.8,-20.8 -11.648,0 -20.8,9.152 -20.8,20.8 0,11.648 9.152,20.8 20.8,20.8 z M 41.6,-183.04 c 11.648,0 20.8,-9.152 20.8,-20.8 0,-11.648 -9.152,-20.8 -20.8,-20.8 -11.648,0 -20.8,9.152 -20.8,20.8 0,11.648 9.152,20.8 20.8,20.8 z m 183.04,0 c 11.648,0 20.8,-9.152 20.8,-20.8 0,-11.648 -9.152,-20.8 -20.8,-20.8 -11.648,0 -20.8,9.152 -20.8,20.8 0,11.648 9.152,20.8 20.8,20.8 z M 41.6,-137.28 c 11.648,0 20.8,-9.152 20.8,-20.8 0,-11.648 -9.152,-20.8 -20.8,-20.8 -11.648,0 -20.8,9.152 -20.8,20.8 0,11.648 9.152,20.8 20.8,20.8 z m 45.76,0 c 11.648,0 20.8,-9.152 20.8,-20.8 0,-11.648 -9.152,-20.8 -20.8,-20.8 -11.648,0 -20.8,9.152 -20.8,20.8 0,11.648 9.152,20.8 20.8,20.8 z m 45.76,0 c 11.648,0 20.8,-9.152 20.8,-20.8 0,-11.648 -9.152,-20.8 -20.8,-20.8 -11.648,0 -20.8,9.152 -20.8,20.8 0,11.648 9.152,20.8 20.8,20.8 z m 45.76,0 c 11.648,0 20.8,-9.152 20.8,-20.8 0,-11.648 -9.152,-20.8 -20.8,-20.8 -11.648,0 -20.8,9.152 -20.8,20.8 0,11.648 9.152,20.8 20.8,20.8 z m 45.76,0 c 11.648,0 20.8,-9.152 20.8,-20.8 0,-11.648 -9.152,-20.8 -20.8,-20.8 -11.648,0 -20.8,9.152 -20.8,20.8 0,11.648 9.152,20.8 20.8,20.8 z M 41.6,-91.52 c 11.648,0 20.8,-9.152 20.8,-20.8 0,-11.648 -9.152,-20.8 -20.8,-20.8 -11.648,0 -20.8,9.152 -20.8,20.8 0,11.648 9.152,20.8 20.8,20.8 z m 183.04,0 c 11.648,0 20.8,-9.152 20.8,-20.8 0,-11.648 -9.152,-20.8 -20.8,-20.8 -11.648,0 -20.8,9.152 -20.8,20.8 0,11.648 9.152,20.8 20.8,20.8 z M 41.6,-45.76 c 11.648,0 20.8,-9.152 20.8,-20.8 0,-11.648 -9.152,-20.8 -20.8,-20.8 -11.648,0 -20.8,9.152 -20.8,20.8 0,11.648 9.152,20.8 20.8,20.8 z m 183.04,0 c 11.648,0 20.8,-9.152 20.8,-20.8 0,-11.648 -9.152,-20.8 -20.8,-20.8 -11.648,0 -20.8,9.152 -20.8,20.8 0,11.648 9.152,20.8 20.8,20.8 z M 41.6,0 c 11.648,0 20.8,-9.152 20.8,-20.8 0,-11.648 -9.152,-20.8 -20.8,-20.8 -11.648,0 -20.8,9.152 -20.8,20.8 0,11.648 9.152,20.8 20.8,20.8 z m 183.04,0 c 11.648,0 20.8,-9.152 20.8,-20.8 0,-11.648 -9.152,-20.8 -20.8,-20.8 -11.648,0 -20.8,9.152 -20.8,20.8 0,11.648 9.152,20.8 20.8,20.8 z"
         id="path577" /></g><path
       d="m 2865,2106 c 0,-243.56 196.99,-441 440,-441 243.01,0 440,197.44 440,441 0,243.56 -196.99,441 -440,441 -243.01,0 -440,-197.44 -440,-441 z"
       fill="#000000"
       fill-rule="evenodd"
       fill-opacity="1"
       id="path114" /><g
       aria-label="E"
       transform="translate(3172.27,2258)"
       id="text116"
       style="font-size:416px;font-family:'LED pixel Circle', 'LED pixel Circle_MSFontService', sans-serif;fill:#ffffff"><path
         d="m 41.6,-274.56 c 11.648,0 20.8,-9.152 20.8,-20.8 0,-11.648 -9.152,-20.8 -20.8,-20.8 -11.648,0 -20.8,9.152 -20.8,20.8 0,11.648 9.152,20.8 20.8,20.8 z m 45.76,0 c 11.648,0 20.8,-9.152 20.8,-20.8 0,-11.648 -9.152,-20.8 -20.8,-20.8 -11.648,0 -20.8,9.152 -20.8,20.8 0,11.648 9.152,20.8 20.8,20.8 z m 45.76,0 c 11.648,0 20.8,-9.152 20.8,-20.8 0,-11.648 -9.152,-20.8 -20.8,-20.8 -11.648,0 -20.8,9.152 -20.8,20.8 0,11.648 9.152,20.8 20.8,20.8 z m 45.76,0 c 11.648,0 20.8,-9.152 20.8,-20.8 0,-11.648 -9.152,-20.8 -20.8,-20.8 -11.648,0 -20.8,9.152 -20.8,20.8 0,11.648 9.152,20.8 20.8,20.8 z m 45.76,0 c 11.648,0 20.8,-9.152 20.8,-20.8 0,-11.648 -9.152,-20.8 -20.8,-20.8 -11.648,0 -20.8,9.152 -20.8,20.8 0,11.648 9.152,20.8 20.8,20.8 z M 41.6,-228.8 c 11.648,0 20.8,-9.152 20.8,-20.8 0,-11.648 -9.152,-20.8 -20.8,-20.8 -11.648,0 -20.8,9.152 -20.8,20.8 0,11.648 9.152,20.8 20.8,20.8 z m 0,45.76 c 11.648,0 20.8,-9.152 20.8,-20.8 0,-11.648 -9.152,-20.8 -20.8,-20.8 -11.648,0 -20.8,9.152 -20.8,20.8 0,11.648 9.152,20.8 20.8,20.8 z m 0,45.76 c 11.648,0 20.8,-9.152 20.8,-20.8 0,-11.648 -9.152,-20.8 -20.8,-20.8 -11.648,0 -20.8,9.152 -20.8,20.8 0,11.648 9.152,20.8 20.8,20.8 z m 45.76,0 c 11.648,0 20.8,-9.152 20.8,-20.8 0,-11.648 -9.152,-20.8 -20.8,-20.8 -11.648,0 -20.8,9.152 -20.8,20.8 0,11.648 9.152,20.8 20.8,20.8 z m 45.76,0 c 11.648,0 20.8,-9.152 20.8,-20.8 0,-11.648 -9.152,-20.8 -20.8,-20.8 -11.648,0 -20.8,9.152 -20.8,20.8 0,11.648 9.152,20.8 20.8,20.8 z m 45.76,0 c 11.648,0 20.8,-9.152 20.8,-20.8 0,-11.648 -9.152,-20.8 -20.8,-20.8 -11.648,0 -20.8,9.152 -20.8,20.8 0,11.648 9.152,20.8 20.8,20.8 z M 41.6,-91.52 c 11.648,0 20.8,-9.152 20.8,-20.8 0,-11.648 -9.152,-20.8 -20.8,-20.8 -11.648,0 -20.8,9.152 -20.8,20.8 0,11.648 9.152,20.8 20.8,20.8 z m 0,45.76 c 11.648,0 20.8,-9.152 20.8,-20.8 0,-11.648 -9.152,-20.8 -20.8,-20.8 -11.648,0 -20.8,9.152 -20.8,20.8 0,11.648 9.152,20.8 20.8,20.8 z M 41.6,0 c 11.648,0 20.8,-9.152 20.8,-20.8 0,-11.648 -9.152,-20.8 -20.8,-20.8 -11.648,0 -20.8,9.152 -20.8,20.8 0,11.648 9.152,20.8 20.8,20.8 z m 45.76,0 c 11.648,0 20.8,-9.152 20.8,-20.8 0,-11.648 -9.152,-20.8 -20.8,-20.8 -11.648,0 -20.8,9.152 -20.8,20.8 0,11.648 9.152,20.8 20.8,20.8 z m 45.76,0 c 11.648,0 20.8,-9.152 20.8,-20.8 0,-11.648 -9.152,-20.8 -20.8,-20.8 -11.648,0 -20.8,9.152 -20.8,20.8 0,11.648 9.152,20.8 20.8,20.8 z m 45.76,0 c 11.648,0 20.8,-9.152 20.8,-20.8 0,-11.648 -9.152,-20.8 -20.8,-20.8 -11.648,0 -20.8,9.152 -20.8,20.8 0,11.648 9.152,20.8 20.8,20.8 z m 45.76,0 c 11.648,0 20.8,-9.152 20.8,-20.8 0,-11.648 -9.152,-20.8 -20.8,-20.8 -11.648,0 -20.8,9.152 -20.8,20.8 0,11.648 9.152,20.8 20.8,20.8 z"
         id="path580" /></g><path
       d="m 3939,2106 c 0,-243.56 196.99,-441 440,-441 243.01,0 440,197.44 440,441 0,243.56 -196.99,441 -440,441 -243.01,0 -440,-197.44 -440,-441 z"
       fill="#000000"
       fill-rule="evenodd"
       fill-opacity="1"
       id="path118" /><g
       aria-label="G"
       transform="translate(4246.22,2258)"
       id="text120"
       style="font-size:416px;font-family:'LED pixel Circle', 'LED pixel Circle_MSFontService', sans-serif;fill:#ffffff"><path
         d="m 87.36,-274.56 c 11.648,0 20.8,-9.152 20.8,-20.8 0,-11.648 -9.152,-20.8 -20.8,-20.8 -11.648,0 -20.8,9.152 -20.8,20.8 0,11.648 9.152,20.8 20.8,20.8 z m 45.76,0 c 11.648,0 20.8,-9.152 20.8,-20.8 0,-11.648 -9.152,-20.8 -20.8,-20.8 -11.648,0 -20.8,9.152 -20.8,20.8 0,11.648 9.152,20.8 20.8,20.8 z m 45.76,0 c 11.648,0 20.8,-9.152 20.8,-20.8 0,-11.648 -9.152,-20.8 -20.8,-20.8 -11.648,0 -20.8,9.152 -20.8,20.8 0,11.648 9.152,20.8 20.8,20.8 z M 41.6,-228.8 c 11.648,0 20.8,-9.152 20.8,-20.8 0,-11.648 -9.152,-20.8 -20.8,-20.8 -11.648,0 -20.8,9.152 -20.8,20.8 0,11.648 9.152,20.8 20.8,20.8 z m 183.04,0 c 11.648,0 20.8,-9.152 20.8,-20.8 0,-11.648 -9.152,-20.8 -20.8,-20.8 -11.648,0 -20.8,9.152 -20.8,20.8 0,11.648 9.152,20.8 20.8,20.8 z M 41.6,-183.04 c 11.648,0 20.8,-9.152 20.8,-20.8 0,-11.648 -9.152,-20.8 -20.8,-20.8 -11.648,0 -20.8,9.152 -20.8,20.8 0,11.648 9.152,20.8 20.8,20.8 z m 0,45.76 c 11.648,0 20.8,-9.152 20.8,-20.8 0,-11.648 -9.152,-20.8 -20.8,-20.8 -11.648,0 -20.8,9.152 -20.8,20.8 0,11.648 9.152,20.8 20.8,20.8 z m 91.52,0 c 11.648,0 20.8,-9.152 20.8,-20.8 0,-11.648 -9.152,-20.8 -20.8,-20.8 -11.648,0 -20.8,9.152 -20.8,20.8 0,11.648 9.152,20.8 20.8,20.8 z m 45.76,0 c 11.648,0 20.8,-9.152 20.8,-20.8 0,-11.648 -9.152,-20.8 -20.8,-20.8 -11.648,0 -20.8,9.152 -20.8,20.8 0,11.648 9.152,20.8 20.8,20.8 z m 45.76,0 c 11.648,0 20.8,-9.152 20.8,-20.8 0,-11.648 -9.152,-20.8 -20.8,-20.8 -11.648,0 -20.8,9.152 -20.8,20.8 0,11.648 9.152,20.8 20.8,20.8 z M 41.6,-91.52 c 11.648,0 20.8,-9.152 20.8,-20.8 0,-11.648 -9.152,-20.8 -20.8,-20.8 -11.648,0 -20.8,9.152 -20.8,20.8 0,11.648 9.152,20.8 20.8,20.8 z m 183.04,0 c 11.648,0 20.8,-9.152 20.8,-20.8 0,-11.648 -9.152,-20.8 -20.8,-20.8 -11.648,0 -20.8,9.152 -20.8,20.8 0,11.648 9.152,20.8 20.8,20.8 z M 41.6,-45.76 c 11.648,0 20.8,-9.152 20.8,-20.8 0,-11.648 -9.152,-20.8 -20.8,-20.8 -11.648,0 -20.8,9.152 -20.8,20.8 0,11.648 9.152,20.8 20.8,20.8 z m 183.04,0 c 11.648,0 20.8,-9.152 20.8,-20.8 0,-11.648 -9.152,-20.8 -20.8,-20.8 -11.648,0 -20.8,9.152 -20.8,20.8 0,11.648 9.152,20.8 20.8,20.8 z M 87.36,0 c 11.648,0 20.8,-9.152 20.8,-20.8 0,-11.648 -9.152,-20.8 -20.8,-20.8 -11.648,0 -20.8,9.152 -20.8,20.8 0,11.648 9.152,20.8 20.8,20.8 z m 45.76,0 c 11.648,0 20.8,-9.152 20.8,-20.8 0,-11.648 -9.152,-20.8 -20.8,-20.8 -11.648,0 -20.8,9.152 -20.8,20.8 0,11.648 9.152,20.8 20.8,20.8 z m 45.76,0 c 11.648,0 20.8,-9.152 20.8,-20.8 0,-11.648 -9.152,-20.8 -20.8,-20.8 -11.648,0 -20.8,9.152 -20.8,20.8 0,11.648 9.152,20.8 20.8,20.8 z"
         id="path583" /></g><path
       d="m 5013,2106 c 0,-243.56 196.99,-441 440,-441 243.01,0 440,197.44 440,441 0,243.56 -196.99,441 -440,441 -243.01,0 -440,-197.44 -440,-441 z"
       fill="#000000"
       fill-rule="evenodd"
       fill-opacity="1"
       id="path122" /><g
       aria-label="A"
       transform="translate(5320.17,2258)"
       id="text124"
       style="font-size:416px;font-family:'LED pixel Circle', 'LED pixel Circle_MSFontService', sans-serif;fill:#ffffff"><path
         d="m 87.36,-274.56 c 11.648,0 20.8,-9.152 20.8,-20.8 0,-11.648 -9.152,-20.8 -20.8,-20.8 -11.648,0 -20.8,9.152 -20.8,20.8 0,11.648 9.152,20.8 20.8,20.8 z m 45.76,0 c 11.648,0 20.8,-9.152 20.8,-20.8 0,-11.648 -9.152,-20.8 -20.8,-20.8 -11.648,0 -20.8,9.152 -20.8,20.8 0,11.648 9.152,20.8 20.8,20.8 z m 45.76,0 c 11.648,0 20.8,-9.152 20.8,-20.8 0,-11.648 -9.152,-20.8 -20.8,-20.8 -11.648,0 -20.8,9.152 -20.8,20.8 0,11.648 9.152,20.8 20.8,20.8 z M 41.6,-228.8 c 11.648,0 20.8,-9.152 20.8,-20.8 0,-11.648 -9.152,-20.8 -20.8,-20.8 -11.648,0 -20.8,9.152 -20.8,20.8 0,11.648 9.152,20.8 20.8,20.8 z m 183.04,0 c 11.648,0 20.8,-9.152 20.8,-20.8 0,-11.648 -9.152,-20.8 -20.8,-20.8 -11.648,0 -20.8,9.152 -20.8,20.8 0,11.648 9.152,20.8 20.8,20.8 z M 41.6,-183.04 c 11.648,0 20.8,-9.152 20.8,-20.8 0,-11.648 -9.152,-20.8 -20.8,-20.8 -11.648,0 -20.8,9.152 -20.8,20.8 0,11.648 9.152,20.8 20.8,20.8 z m 183.04,0 c 11.648,0 20.8,-9.152 20.8,-20.8 0,-11.648 -9.152,-20.8 -20.8,-20.8 -11.648,0 -20.8,9.152 -20.8,20.8 0,11.648 9.152,20.8 20.8,20.8 z M 41.6,-137.28 c 11.648,0 20.8,-9.152 20.8,-20.8 0,-11.648 -9.152,-20.8 -20.8,-20.8 -11.648,0 -20.8,9.152 -20.8,20.8 0,11.648 9.152,20.8 20.8,20.8 z m 183.04,0 c 11.648,0 20.8,-9.152 20.8,-20.8 0,-11.648 -9.152,-20.8 -20.8,-20.8 -11.648,0 -20.8,9.152 -20.8,20.8 0,11.648 9.152,20.8 20.8,20.8 z M 41.6,-91.52 c 11.648,0 20.8,-9.152 20.8,-20.8 0,-11.648 -9.152,-20.8 -20.8,-20.8 -11.648,0 -20.8,9.152 -20.8,20.8 0,11.648 9.152,20.8 20.8,20.8 z m 45.76,0 c 11.648,0 20.8,-9.152 20.8,-20.8 0,-11.648 -9.152,-20.8 -20.8,-20.8 -11.648,0 -20.8,9.152 -20.8,20.8 0,11.648 9.152,20.8 20.8,20.8 z m 45.76,0 c 11.648,0 20.8,-9.152 20.8,-20.8 0,-11.648 -9.152,-20.8 -20.8,-20.8 -11.648,0 -20.8,9.152 -20.8,20.8 0,11.648 9.152,20.8 20.8,20.8 z m 45.76,0 c 11.648,0 20.8,-9.152 20.8,-20.8 0,-11.648 -9.152,-20.8 -20.8,-20.8 -11.648,0 -20.8,9.152 -20.8,20.8 0,11.648 9.152,20.8 20.8,20.8 z m 45.76,0 c 11.648,0 20.8,-9.152 20.8,-20.8 0,-11.648 -9.152,-20.8 -20.8,-20.8 -11.648,0 -20.8,9.152 -20.8,20.8 0,11.648 9.152,20.8 20.8,20.8 z M 41.6,-45.76 c 11.648,0 20.8,-9.152 20.8,-20.8 0,-11.648 -9.152,-20.8 -20.8,-20.8 -11.648,0 -20.8,9.152 -20.8,20.8 0,11.648 9.152,20.8 20.8,20.8 z m 183.04,0 c 11.648,0 20.8,-9.152 20.8,-20.8 0,-11.648 -9.152,-20.8 -20.8,-20.8 -11.648,0 -20.8,9.152 -20.8,20.8 0,11.648 9.152,20.8 20.8,20.8 z M 41.6,0 c 11.648,0 20.8,-9.152 20.8,-20.8 0,-11.648 -9.152,-20.8 -20.8,-20.8 -11.648,0 -20.8,9.152 -20.8,20.8 0,11.648 9.152,20.8 20.8,20.8 z m 183.04,0 c 11.648,0 20.8,-9.152 20.8,-20.8 0,-11.648 -9.152,-20.8 -20.8,-20.8 -11.648,0 -20.8,9.152 -20.8,20.8 0,11.648 9.152,20.8 20.8,20.8 z"
         id="path586" /></g><path
       d="m 6087,2106 c 0,-243.56 196.99,-441 440,-441 243.01,0 440,197.44 440,441 0,243.56 -196.99,441 -440,441 -243.01,0 -440,-197.44 -440,-441 z"
       fill="#000000"
       fill-rule="evenodd"
       fill-opacity="1"
       id="path126" /><g
       aria-label="M"
       transform="translate(6394.12,2258)"
       id="text128"
       style="font-size:416px;font-family:'LED pixel Circle', 'LED pixel Circle_MSFontService', sans-serif;fill:#ffffff"><path
         d="m 41.6,-316.16 c -11.648,0 -20.8,9.152 -20.8,20.8 0,11.648 9.152,20.8 20.8,20.8 11.648,0 20.8,-9.152 20.8,-20.8 0,-11.648 -9.152,-20.8 -20.8,-20.8 z m 183.04,0 c -11.648,0 -20.8,9.152 -20.8,20.8 0,11.648 9.152,20.8 20.8,20.8 11.648,0 20.8,-9.152 20.8,-20.8 0,-11.648 -9.152,-20.8 -20.8,-20.8 z M 41.6,-270.4 c -11.648,0 -20.8,9.152 -20.8,20.8 0,11.648 9.152,20.8 20.8,20.8 11.648,0 20.8,-9.152 20.8,-20.8 0,-11.648 -9.152,-20.8 -20.8,-20.8 z m 45.76,0 c -11.648,0 -20.8,9.152 -20.8,20.8 0,11.648 9.152,20.8 20.8,20.8 11.648,0 20.8,-9.152 20.8,-20.8 0,-11.648 -9.152,-20.8 -20.8,-20.8 z m 91.52,0 c -11.648,0 -20.8,9.152 -20.8,20.8 0,11.648 9.152,20.8 20.8,20.8 11.648,0 20.8,-9.152 20.8,-20.8 0,-11.648 -9.152,-20.8 -20.8,-20.8 z m 45.76,0 c -11.648,0 -20.8,9.152 -20.8,20.8 0,11.648 9.152,20.8 20.8,20.8 11.648,0 20.8,-9.152 20.8,-20.8 0,-11.648 -9.152,-20.8 -20.8,-20.8 z M 41.6,-224.64 c -11.648,0 -20.8,9.152 -20.8,20.8 0,11.648 9.152,20.8 20.8,20.8 11.648,0 20.8,-9.152 20.8,-20.8 0,-11.648 -9.152,-20.8 -20.8,-20.8 z m 91.52,0 c -11.648,0 -20.8,9.152 -20.8,20.8 0,11.648 9.152,20.8 20.8,20.8 11.648,0 20.8,-9.152 20.8,-20.8 0,-11.648 -9.152,-20.8 -20.8,-20.8 z m 91.52,0 c -11.648,0 -20.8,9.152 -20.8,20.8 0,11.648 9.152,20.8 20.8,20.8 11.648,0 20.8,-9.152 20.8,-20.8 0,-11.648 -9.152,-20.8 -20.8,-20.8 z M 41.6,-178.88 c -11.648,0 -20.8,9.152 -20.8,20.8 0,11.648 9.152,20.8 20.8,20.8 11.648,0 20.8,-9.152 20.8,-20.8 0,-11.648 -9.152,-20.8 -20.8,-20.8 z m 91.52,0 c -11.648,0 -20.8,9.152 -20.8,20.8 0,11.648 9.152,20.8 20.8,20.8 11.648,0 20.8,-9.152 20.8,-20.8 0,-11.648 -9.152,-20.8 -20.8,-20.8 z m 91.52,0 c -11.648,0 -20.8,9.152 -20.8,20.8 0,11.648 9.152,20.8 20.8,20.8 11.648,0 20.8,-9.152 20.8,-20.8 0,-11.648 -9.152,-20.8 -20.8,-20.8 z M 41.6,-133.12 c -11.648,0 -20.8,9.152 -20.8,20.8 0,11.648 9.152,20.8 20.8,20.8 11.648,0 20.8,-9.152 20.8,-20.8 0,-11.648 -9.152,-20.8 -20.8,-20.8 z m 91.52,0 c -11.648,0 -20.8,9.152 -20.8,20.8 0,11.648 9.152,20.8 20.8,20.8 11.648,0 20.8,-9.152 20.8,-20.8 0,-11.648 -9.152,-20.8 -20.8,-20.8 z m 91.52,0 c -11.648,0 -20.8,9.152 -20.8,20.8 0,11.648 9.152,20.8 20.8,20.8 11.648,0 20.8,-9.152 20.8,-20.8 0,-11.648 -9.152,-20.8 -20.8,-20.8 z M 41.6,-87.36 c -11.648,0 -20.8,9.152 -20.8,20.8 0,11.648 9.152,20.8 20.8,20.8 11.648,0 20.8,-9.152 20.8,-20.8 0,-11.648 -9.152,-20.8 -20.8,-20.8 z m 183.04,0 c -11.648,0 -20.8,9.152 -20.8,20.8 0,11.648 9.152,20.8 20.8,20.8 11.648,0 20.8,-9.152 20.8,-20.8 0,-11.648 -9.152,-20.8 -20.8,-20.8 z M 41.6,-41.6 c -11.648,0 -20.8,9.152 -20.8,20.8 0,11.648 9.152,20.8 20.8,20.8 11.648,0 20.8,-9.152 20.8,-20.8 0,-11.648 -9.152,-20.8 -20.8,-20.8 z m 183.04,0 c -11.648,0 -20.8,9.152 -20.8,20.8 0,11.648 9.152,20.8 20.8,20.8 11.648,0 20.8,-9.152 20.8,-20.8 0,-11.648 -9.152,-20.8 -20.8,-20.8 z"
         id="path589" /></g><path
       d="m 7161,2106 c 0,-243.56 196.99,-441 440,-441 243.01,0 440,197.44 440,441 0,243.56 -196.99,441 -440,441 -243.01,0 -440,-197.44 -440,-441 z"
       fill="#000000"
       fill-rule="evenodd"
       fill-opacity="1"
       id="path130" /><g
       aria-label="E"
       transform="translate(7468.07,2258)"
       id="text132"
       style="font-size:416px;font-family:'LED pixel Circle', 'LED pixel Circle_MSFontService', sans-serif;fill:#ffffff"><path
         d="m 41.6,-274.56 c 11.648,0 20.8,-9.152 20.8,-20.8 0,-11.648 -9.152,-20.8 -20.8,-20.8 -11.648,0 -20.8,9.152 -20.8,20.8 0,11.648 9.152,20.8 20.8,20.8 z m 45.76,0 c 11.648,0 20.8,-9.152 20.8,-20.8 0,-11.648 -9.152,-20.8 -20.8,-20.8 -11.648,0 -20.8,9.152 -20.8,20.8 0,11.648 9.152,20.8 20.8,20.8 z m 45.76,0 c 11.648,0 20.8,-9.152 20.8,-20.8 0,-11.648 -9.152,-20.8 -20.8,-20.8 -11.648,0 -20.8,9.152 -20.8,20.8 0,11.648 9.152,20.8 20.8,20.8 z m 45.76,0 c 11.648,0 20.8,-9.152 20.8,-20.8 0,-11.648 -9.152,-20.8 -20.8,-20.8 -11.648,0 -20.8,9.152 -20.8,20.8 0,11.648 9.152,20.8 20.8,20.8 z m 45.76,0 c 11.648,0 20.8,-9.152 20.8,-20.8 0,-11.648 -9.152,-20.8 -20.8,-20.8 -11.648,0 -20.8,9.152 -20.8,20.8 0,11.648 9.152,20.8 20.8,20.8 z M 41.6,-228.8 c 11.648,0 20.8,-9.152 20.8,-20.8 0,-11.648 -9.152,-20.8 -20.8,-20.8 -11.648,0 -20.8,9.152 -20.8,20.8 0,11.648 9.152,20.8 20.8,20.8 z m 0,45.76 c 11.648,0 20.8,-9.152 20.8,-20.8 0,-11.648 -9.152,-20.8 -20.8,-20.8 -11.648,0 -20.8,9.152 -20.8,20.8 0,11.648 9.152,20.8 20.8,20.8 z m 0,45.76 c 11.648,0 20.8,-9.152 20.8,-20.8 0,-11.648 -9.152,-20.8 -20.8,-20.8 -11.648,0 -20.8,9.152 -20.8,20.8 0,11.648 9.152,20.8 20.8,20.8 z m 45.76,0 c 11.648,0 20.8,-9.152 20.8,-20.8 0,-11.648 -9.152,-20.8 -20.8,-20.8 -11.648,0 -20.8,9.152 -20.8,20.8 0,11.648 9.152,20.8 20.8,20.8 z m 45.76,0 c 11.648,0 20.8,-9.152 20.8,-20.8 0,-11.648 -9.152,-20.8 -20.8,-20.8 -11.648,0 -20.8,9.152 -20.8,20.8 0,11.648 9.152,20.8 20.8,20.8 z m 45.76,0 c 11.648,0 20.8,-9.152 20.8,-20.8 0,-11.648 -9.152,-20.8 -20.8,-20.8 -11.648,0 -20.8,9.152 -20.8,20.8 0,11.648 9.152,20.8 20.8,20.8 z M 41.6,-91.52 c 11.648,0 20.8,-9.152 20.8,-20.8 0,-11.648 -9.152,-20.8 -20.8,-20.8 -11.648,0 -20.8,9.152 -20.8,20.8 0,11.648 9.152,20.8 20.8,20.8 z m 0,45.76 c 11.648,0 20.8,-9.152 20.8,-20.8 0,-11.648 -9.152,-20.8 -20.8,-20.8 -11.648,0 -20.8,9.152 -20.8,20.8 0,11.648 9.152,20.8 20.8,20.8 z M 41.6,0 c 11.648,0 20.8,-9.152 20.8,-20.8 0,-11.648 -9.152,-20.8 -20.8,-20.8 -11.648,0 -20.8,9.152 -20.8,20.8 0,11.648 9.152,20.8 20.8,20.8 z m 45.76,0 c 11.648,0 20.8,-9.152 20.8,-20.8 0,-11.648 -9.152,-20.8 -20.8,-20.8 -11.648,0 -20.8,9.152 -20.8,20.8 0,11.648 9.152,20.8 20.8,20.8 z m 45.76,0 c 11.648,0 20.8,-9.152 20.8,-20.8 0,-11.648 -9.152,-20.8 -20.8,-20.8 -11.648,0 -20.8,9.152 -20.8,20.8 0,11.648 9.152,20.8 20.8,20.8 z m 45.76,0 c 11.648,0 20.8,-9.152 20.8,-20.8 0,-11.648 -9.152,-20.8 -20.8,-20.8 -11.648,0 -20.8,9.152 -20.8,20.8 0,11.648 9.152,20.8 20.8,20.8 z m 45.76,0 c 11.648,0 20.8,-9.152 20.8,-20.8 0,-11.648 -9.152,-20.8 -20.8,-20.8 -11.648,0 -20.8,9.152 -20.8,20.8 0,11.648 9.152,20.8 20.8,20.8 z"
         id="path592" /></g><path
       d="m 1799,3127 c 0,-243.56 197.22,-441 440.5,-441 243.28,0 440.5,197.44 440.5,441 0,243.56 -197.22,441 -440.5,441 -243.28,0 -440.5,-197.44 -440.5,-441 z"
       fill="#000000"
       fill-rule="evenodd"
       fill-opacity="1"
       id="path134" /><g
       aria-label="O"
       transform="translate(2106.43,3279)"
       id="text136"
       style="font-size:416px;font-family:'LED pixel Circle', 'LED pixel Circle_MSFontService', sans-serif;fill:#ffffff"><path
         d="m 87.36,-274.56 c 11.648,0 20.8,-9.152 20.8,-20.8 0,-11.648 -9.152,-20.8 -20.8,-20.8 -11.648,0 -20.8,9.152 -20.8,20.8 0,11.648 9.152,20.8 20.8,20.8 z m 45.76,0 c 11.648,0 20.8,-9.152 20.8,-20.8 0,-11.648 -9.152,-20.8 -20.8,-20.8 -11.648,0 -20.8,9.152 -20.8,20.8 0,11.648 9.152,20.8 20.8,20.8 z m 45.76,0 c 11.648,0 20.8,-9.152 20.8,-20.8 0,-11.648 -9.152,-20.8 -20.8,-20.8 -11.648,0 -20.8,9.152 -20.8,20.8 0,11.648 9.152,20.8 20.8,20.8 z M 41.6,-228.8 c 11.648,0 20.8,-9.152 20.8,-20.8 0,-11.648 -9.152,-20.8 -20.8,-20.8 -11.648,0 -20.8,9.152 -20.8,20.8 0,11.648 9.152,20.8 20.8,20.8 z m 183.04,0 c 11.648,0 20.8,-9.152 20.8,-20.8 0,-11.648 -9.152,-20.8 -20.8,-20.8 -11.648,0 -20.8,9.152 -20.8,20.8 0,11.648 9.152,20.8 20.8,20.8 z M 41.6,-183.04 c 11.648,0 20.8,-9.152 20.8,-20.8 0,-11.648 -9.152,-20.8 -20.8,-20.8 -11.648,0 -20.8,9.152 -20.8,20.8 0,11.648 9.152,20.8 20.8,20.8 z m 183.04,0 c 11.648,0 20.8,-9.152 20.8,-20.8 0,-11.648 -9.152,-20.8 -20.8,-20.8 -11.648,0 -20.8,9.152 -20.8,20.8 0,11.648 9.152,20.8 20.8,20.8 z M 41.6,-137.28 c 11.648,0 20.8,-9.152 20.8,-20.8 0,-11.648 -9.152,-20.8 -20.8,-20.8 -11.648,0 -20.8,9.152 -20.8,20.8 0,11.648 9.152,20.8 20.8,20.8 z m 183.04,0 c 11.648,0 20.8,-9.152 20.8,-20.8 0,-11.648 -9.152,-20.8 -20.8,-20.8 -11.648,0 -20.8,9.152 -20.8,20.8 0,11.648 9.152,20.8 20.8,20.8 z M 41.6,-91.52 c 11.648,0 20.8,-9.152 20.8,-20.8 0,-11.648 -9.152,-20.8 -20.8,-20.8 -11.648,0 -20.8,9.152 -20.8,20.8 0,11.648 9.152,20.8 20.8,20.8 z m 183.04,0 c 11.648,0 20.8,-9.152 20.8,-20.8 0,-11.648 -9.152,-20.8 -20.8,-20.8 -11.648,0 -20.8,9.152 -20.8,20.8 0,11.648 9.152,20.8 20.8,20.8 z M 41.6,-45.76 c 11.648,0 20.8,-9.152 20.8,-20.8 0,-11.648 -9.152,-20.8 -20.8,-20.8 -11.648,0 -20.8,9.152 -20.8,20.8 0,11.648 9.152,20.8 20.8,20.8 z m 183.04,0 c 11.648,0 20.8,-9.152 20.8,-20.8 0,-11.648 -9.152,-20.8 -20.8,-20.8 -11.648,0 -20.8,9.152 -20.8,20.8 0,11.648 9.152,20.8 20.8,20.8 z M 87.36,0 c 11.648,0 20.8,-9.152 20.8,-20.8 0,-11.648 -9.152,-20.8 -20.8,-20.8 -11.648,0 -20.8,9.152 -20.8,20.8 0,11.648 9.152,20.8 20.8,20.8 z m 45.76,0 c 11.648,0 20.8,-9.152 20.8,-20.8 0,-11.648 -9.152,-20.8 -20.8,-20.8 -11.648,0 -20.8,9.152 -20.8,20.8 0,11.648 9.152,20.8 20.8,20.8 z m 45.76,0 c 11.648,0 20.8,-9.152 20.8,-20.8 0,-11.648 -9.152,-20.8 -20.8,-20.8 -11.648,0 -20.8,9.152 -20.8,20.8 0,11.648 9.152,20.8 20.8,20.8 z"
         id="path595" /></g><path
       d="m 2873,3127 c 0,-243.56 197.22,-441 440.5,-441 243.28,0 440.5,197.44 440.5,441 0,243.56 -197.22,441 -440.5,441 -243.28,0 -440.5,-197.44 -440.5,-441 z"
       fill="#000000"
       fill-rule="evenodd"
       fill-opacity="1"
       id="path138" /><g
       aria-label="F"
       transform="translate(3180.38,3279)"
       id="text140"
       style="font-size:416px;font-family:'LED pixel Circle', 'LED pixel Circle_MSFontService', sans-serif;fill:#ffffff"><path
         d="m 41.6,-274.56 c 11.648,0 20.8,-9.152 20.8,-20.8 0,-11.648 -9.152,-20.8 -20.8,-20.8 -11.648,0 -20.8,9.152 -20.8,20.8 0,11.648 9.152,20.8 20.8,20.8 z m 45.76,0 c 11.648,0 20.8,-9.152 20.8,-20.8 0,-11.648 -9.152,-20.8 -20.8,-20.8 -11.648,0 -20.8,9.152 -20.8,20.8 0,11.648 9.152,20.8 20.8,20.8 z m 45.76,0 c 11.648,0 20.8,-9.152 20.8,-20.8 0,-11.648 -9.152,-20.8 -20.8,-20.8 -11.648,0 -20.8,9.152 -20.8,20.8 0,11.648 9.152,20.8 20.8,20.8 z m 45.76,0 c 11.648,0 20.8,-9.152 20.8,-20.8 0,-11.648 -9.152,-20.8 -20.8,-20.8 -11.648,0 -20.8,9.152 -20.8,20.8 0,11.648 9.152,20.8 20.8,20.8 z m 45.76,0 c 11.648,0 20.8,-9.152 20.8,-20.8 0,-11.648 -9.152,-20.8 -20.8,-20.8 -11.648,0 -20.8,9.152 -20.8,20.8 0,11.648 9.152,20.8 20.8,20.8 z M 41.6,-228.8 c 11.648,0 20.8,-9.152 20.8,-20.8 0,-11.648 -9.152,-20.8 -20.8,-20.8 -11.648,0 -20.8,9.152 -20.8,20.8 0,11.648 9.152,20.8 20.8,20.8 z m 0,45.76 c 11.648,0 20.8,-9.152 20.8,-20.8 0,-11.648 -9.152,-20.8 -20.8,-20.8 -11.648,0 -20.8,9.152 -20.8,20.8 0,11.648 9.152,20.8 20.8,20.8 z m 0,45.76 c 11.648,0 20.8,-9.152 20.8,-20.8 0,-11.648 -9.152,-20.8 -20.8,-20.8 -11.648,0 -20.8,9.152 -20.8,20.8 0,11.648 9.152,20.8 20.8,20.8 z m 45.76,0 c 11.648,0 20.8,-9.152 20.8,-20.8 0,-11.648 -9.152,-20.8 -20.8,-20.8 -11.648,0 -20.8,9.152 -20.8,20.8 0,11.648 9.152,20.8 20.8,20.8 z m 45.76,0 c 11.648,0 20.8,-9.152 20.8,-20.8 0,-11.648 -9.152,-20.8 -20.8,-20.8 -11.648,0 -20.8,9.152 -20.8,20.8 0,11.648 9.152,20.8 20.8,20.8 z m 45.76,0 c 11.648,0 20.8,-9.152 20.8,-20.8 0,-11.648 -9.152,-20.8 -20.8,-20.8 -11.648,0 -20.8,9.152 -20.8,20.8 0,11.648 9.152,20.8 20.8,20.8 z M 41.6,-91.52 c 11.648,0 20.8,-9.152 20.8,-20.8 0,-11.648 -9.152,-20.8 -20.8,-20.8 -11.648,0 -20.8,9.152 -20.8,20.8 0,11.648 9.152,20.8 20.8,20.8 z m 0,45.76 c 11.648,0 20.8,-9.152 20.8,-20.8 0,-11.648 -9.152,-20.8 -20.8,-20.8 -11.648,0 -20.8,9.152 -20.8,20.8 0,11.648 9.152,20.8 20.8,20.8 z M 41.6,0 c 11.648,0 20.8,-9.152 20.8,-20.8 0,-11.648 -9.152,-20.8 -20.8,-20.8 -11.648,0 -20.8,9.152 -20.8,20.8 0,11.648 9.152,20.8 20.8,20.8 z"
         id="path598" /></g><path
       d="m 3947,3127 c 0,-243.56 197.22,-441 440.5,-441 243.28,0 440.5,197.44 440.5,441 0,243.56 -197.22,441 -440.5,441 -243.28,0 -440.5,-197.44 -440.5,-441 z"
       fill="#000000"
       fill-rule="evenodd"
       fill-opacity="1"
       id="path142" /><g
       aria-label="L"
       transform="translate(4254.33,3279)"
       id="text144"
       style="font-size:416px;font-family:'LED pixel Circle', 'LED pixel Circle_MSFontService', sans-serif;fill:#ffffff"><path
         d="m 41.6,-274.56 c 11.648,0 20.8,-9.152 20.8,-20.8 0,-11.648 -9.152,-20.8 -20.8,-20.8 -11.648,0 -20.8,9.152 -20.8,20.8 0,11.648 9.152,20.8 20.8,20.8 z m 0,45.76 c 11.648,0 20.8,-9.152 20.8,-20.8 0,-11.648 -9.152,-20.8 -20.8,-20.8 -11.648,0 -20.8,9.152 -20.8,20.8 0,11.648 9.152,20.8 20.8,20.8 z m 0,45.76 c 11.648,0 20.8,-9.152 20.8,-20.8 0,-11.648 -9.152,-20.8 -20.8,-20.8 -11.648,0 -20.8,9.152 -20.8,20.8 0,11.648 9.152,20.8 20.8,20.8 z m 0,45.76 c 11.648,0 20.8,-9.152 20.8,-20.8 0,-11.648 -9.152,-20.8 -20.8,-20.8 -11.648,0 -20.8,9.152 -20.8,20.8 0,11.648 9.152,20.8 20.8,20.8 z m 0,45.76 c 11.648,0 20.8,-9.152 20.8,-20.8 0,-11.648 -9.152,-20.8 -20.8,-20.8 -11.648,0 -20.8,9.152 -20.8,20.8 0,11.648 9.152,20.8 20.8,20.8 z m 0,45.76 c 11.648,0 20.8,-9.152 20.8,-20.8 0,-11.648 -9.152,-20.8 -20.8,-20.8 -11.648,0 -20.8,9.152 -20.8,20.8 0,11.648 9.152,20.8 20.8,20.8 z M 41.6,0 c 11.648,0 20.8,-9.152 20.8,-20.8 0,-11.648 -9.152,-20.8 -20.8,-20.8 -11.648,0 -20.8,9.152 -20.8,20.8 0,11.648 9.152,20.8 20.8,20.8 z m 45.76,0 c 11.648,0 20.8,-9.152 20.8,-20.8 0,-11.648 -9.152,-20.8 -20.8,-20.8 -11.648,0 -20.8,9.152 -20.8,20.8 0,11.648 9.152,20.8 20.8,20.8 z m 45.76,0 c 11.648,0 20.8,-9.152 20.8,-20.8 0,-11.648 -9.152,-20.8 -20.8,-20.8 -11.648,0 -20.8,9.152 -20.8,20.8 0,11.648 9.152,20.8 20.8,20.8 z m 45.76,0 c 11.648,0 20.8,-9.152 20.8,-20.8 0,-11.648 -9.152,-20.8 -20.8,-20.8 -11.648,0 -20.8,9.152 -20.8,20.8 0,11.648 9.152,20.8 20.8,20.8 z m 45.76,0 c 11.648,0 20.8,-9.152 20.8,-20.8 0,-11.648 -9.152,-20.8 -20.8,-20.8 -11.648,0 -20.8,9.152 -20.8,20.8 0,11.648 9.152,20.8 20.8,20.8 z"
         id="path601" /></g><path
       d="m 5021,3127 c 0,-243.56 196.99,-441 440,-441 243.01,0 440,197.44 440,441 0,243.56 -196.99,441 -440,441 -243.01,0 -440,-197.44 -440,-441 z"
       fill="#000000"
       fill-rule="evenodd"
       fill-opacity="1"
       id="path146" /><g
       aria-label="I"
       transform="translate(5373.82,3279)"
       id="text148"
       style="font-size:416px;font-family:'LED pixel Circle', 'LED pixel Circle_MSFontService', sans-serif;fill:#ffffff"><path
         d="m 41.6,-274.56 c 11.648,0 20.8,-9.152 20.8,-20.8 0,-11.648 -9.152,-20.8 -20.8,-20.8 -11.648,0 -20.8,9.152 -20.8,20.8 0,11.648 9.152,20.8 20.8,20.8 z m 45.76,0 c 11.648,0 20.8,-9.152 20.8,-20.8 0,-11.648 -9.152,-20.8 -20.8,-20.8 -11.648,0 -20.8,9.152 -20.8,20.8 0,11.648 9.152,20.8 20.8,20.8 z m 45.76,0 c 11.648,0 20.8,-9.152 20.8,-20.8 0,-11.648 -9.152,-20.8 -20.8,-20.8 -11.648,0 -20.8,9.152 -20.8,20.8 0,11.648 9.152,20.8 20.8,20.8 z m -45.76,45.76 c 11.648,0 20.8,-9.152 20.8,-20.8 0,-11.648 -9.152,-20.8 -20.8,-20.8 -11.648,0 -20.8,9.152 -20.8,20.8 0,11.648 9.152,20.8 20.8,20.8 z m 0,45.76 c 11.648,0 20.8,-9.152 20.8,-20.8 0,-11.648 -9.152,-20.8 -20.8,-20.8 -11.648,0 -20.8,9.152 -20.8,20.8 0,11.648 9.152,20.8 20.8,20.8 z m 0,45.76 c 11.648,0 20.8,-9.152 20.8,-20.8 0,-11.648 -9.152,-20.8 -20.8,-20.8 -11.648,0 -20.8,9.152 -20.8,20.8 0,11.648 9.152,20.8 20.8,20.8 z m 0,45.76 c 11.648,0 20.8,-9.152 20.8,-20.8 0,-11.648 -9.152,-20.8 -20.8,-20.8 -11.648,0 -20.8,9.152 -20.8,20.8 0,11.648 9.152,20.8 20.8,20.8 z m 0,45.76 c 11.648,0 20.8,-9.152 20.8,-20.8 0,-11.648 -9.152,-20.8 -20.8,-20.8 -11.648,0 -20.8,9.152 -20.8,20.8 0,11.648 9.152,20.8 20.8,20.8 z M 41.6,0 c 11.648,0 20.8,-9.152 20.8,-20.8 0,-11.648 -9.152,-20.8 -20.8,-20.8 -11.648,0 -20.8,9.152 -20.8,20.8 0,11.648 9.152,20.8 20.8,20.8 z m 45.76,0 c 11.648,0 20.8,-9.152 20.8,-20.8 0,-11.648 -9.152,-20.8 -20.8,-20.8 -11.648,0 -20.8,9.152 -20.8,20.8 0,11.648 9.152,20.8 20.8,20.8 z m 45.76,0 c 11.648,0 20.8,-9.152 20.8,-20.8 0,-11.648 -9.152,-20.8 -20.8,-20.8 -11.648,0 -20.8,9.152 -20.8,20.8 0,11.648 9.152,20.8 20.8,20.8 z"
         id="path604" /></g><path
       d="m 6095,3127 c 0,-243.56 196.99,-441 440,-441 243.01,0 440,197.44 440,441 0,243.56 -196.99,441 -440,441 -243.01,0 -440,-197.44 -440,-441 z"
       fill="#000000"
       fill-rule="evenodd"
       fill-opacity="1"
       id="path150" /><g
       aria-label="F"
       transform="translate(6402.23,3279)"
       id="text152"
       style="font-size:416px;font-family:'LED pixel Circle', 'LED pixel Circle_MSFontService', sans-serif;fill:#ffffff"><path
         d="m 41.6,-274.56 c 11.648,0 20.8,-9.152 20.8,-20.8 0,-11.648 -9.152,-20.8 -20.8,-20.8 -11.648,0 -20.8,9.152 -20.8,20.8 0,11.648 9.152,20.8 20.8,20.8 z m 45.76,0 c 11.648,0 20.8,-9.152 20.8,-20.8 0,-11.648 -9.152,-20.8 -20.8,-20.8 -11.648,0 -20.8,9.152 -20.8,20.8 0,11.648 9.152,20.8 20.8,20.8 z m 45.76,0 c 11.648,0 20.8,-9.152 20.8,-20.8 0,-11.648 -9.152,-20.8 -20.8,-20.8 -11.648,0 -20.8,9.152 -20.8,20.8 0,11.648 9.152,20.8 20.8,20.8 z m 45.76,0 c 11.648,0 20.8,-9.152 20.8,-20.8 0,-11.648 -9.152,-20.8 -20.8,-20.8 -11.648,0 -20.8,9.152 -20.8,20.8 0,11.648 9.152,20.8 20.8,20.8 z m 45.76,0 c 11.648,0 20.8,-9.152 20.8,-20.8 0,-11.648 -9.152,-20.8 -20.8,-20.8 -11.648,0 -20.8,9.152 -20.8,20.8 0,11.648 9.152,20.8 20.8,20.8 z M 41.6,-228.8 c 11.648,0 20.8,-9.152 20.8,-20.8 0,-11.648 -9.152,-20.8 -20.8,-20.8 -11.648,0 -20.8,9.152 -20.8,20.8 0,11.648 9.152,20.8 20.8,20.8 z m 0,45.76 c 11.648,0 20.8,-9.152 20.8,-20.8 0,-11.648 -9.152,-20.8 -20.8,-20.8 -11.648,0 -20.8,9.152 -20.8,20.8 0,11.648 9.152,20.8 20.8,20.8 z m 0,45.76 c 11.648,0 20.8,-9.152 20.8,-20.8 0,-11.648 -9.152,-20.8 -20.8,-20.8 -11.648,0 -20.8,9.152 -20.8,20.8 0,11.648 9.152,20.8 20.8,20.8 z m 45.76,0 c 11.648,0 20.8,-9.152 20.8,-20.8 0,-11.648 -9.152,-20.8 -20.8,-20.8 -11.648,0 -20.8,9.152 -20.8,20.8 0,11.648 9.152,20.8 20.8,20.8 z m 45.76,0 c 11.648,0 20.8,-9.152 20.8,-20.8 0,-11.648 -9.152,-20.8 -20.8,-20.8 -11.648,0 -20.8,9.152 -20.8,20.8 0,11.648 9.152,20.8 20.8,20.8 z m 45.76,0 c 11.648,0 20.8,-9.152 20.8,-20.8 0,-11.648 -9.152,-20.8 -20.8,-20.8 -11.648,0 -20.8,9.152 -20.8,20.8 0,11.648 9.152,20.8 20.8,20.8 z M 41.6,-91.52 c 11.648,0 20.8,-9.152 20.8,-20.8 0,-11.648 -9.152,-20.8 -20.8,-20.8 -11.648,0 -20.8,9.152 -20.8,20.8 0,11.648 9.152,20.8 20.8,20.8 z m 0,45.76 c 11.648,0 20.8,-9.152 20.8,-20.8 0,-11.648 -9.152,-20.8 -20.8,-20.8 -11.648,0 -20.8,9.152 -20.8,20.8 0,11.648 9.152,20.8 20.8,20.8 z M 41.6,0 c 11.648,0 20.8,-9.152 20.8,-20.8 0,-11.648 -9.152,-20.8 -20.8,-20.8 -11.648,0 -20.8,9.152 -20.8,20.8 0,11.648 9.152,20.8 20.8,20.8 z"
         id="path607" /></g><path
       d="m 7169,3127 c 0,-243.56 196.99,-441 440,-441 243.01,0 440,197.44 440,441 0,243.56 -196.99,441 -440,441 -243.01,0 -440,-197.44 -440,-441 z"
       fill="#000000"
       fill-rule="evenodd"
       fill-opacity="1"
       id="path154" /><g
       aria-label="E"
       transform="translate(7476.18,3279)"
       id="text156"
       style="font-size:416px;font-family:'LED pixel Circle', 'LED pixel Circle_MSFontService', sans-serif;fill:#ffffff"><path
         d="m 41.6,-274.56 c 11.648,0 20.8,-9.152 20.8,-20.8 0,-11.648 -9.152,-20.8 -20.8,-20.8 -11.648,0 -20.8,9.152 -20.8,20.8 0,11.648 9.152,20.8 20.8,20.8 z m 45.76,0 c 11.648,0 20.8,-9.152 20.8,-20.8 0,-11.648 -9.152,-20.8 -20.8,-20.8 -11.648,0 -20.8,9.152 -20.8,20.8 0,11.648 9.152,20.8 20.8,20.8 z m 45.76,0 c 11.648,0 20.8,-9.152 20.8,-20.8 0,-11.648 -9.152,-20.8 -20.8,-20.8 -11.648,0 -20.8,9.152 -20.8,20.8 0,11.648 9.152,20.8 20.8,20.8 z m 45.76,0 c 11.648,0 20.8,-9.152 20.8,-20.8 0,-11.648 -9.152,-20.8 -20.8,-20.8 -11.648,0 -20.8,9.152 -20.8,20.8 0,11.648 9.152,20.8 20.8,20.8 z m 45.76,0 c 11.648,0 20.8,-9.152 20.8,-20.8 0,-11.648 -9.152,-20.8 -20.8,-20.8 -11.648,0 -20.8,9.152 -20.8,20.8 0,11.648 9.152,20.8 20.8,20.8 z M 41.6,-228.8 c 11.648,0 20.8,-9.152 20.8,-20.8 0,-11.648 -9.152,-20.8 -20.8,-20.8 -11.648,0 -20.8,9.152 -20.8,20.8 0,11.648 9.152,20.8 20.8,20.8 z m 0,45.76 c 11.648,0 20.8,-9.152 20.8,-20.8 0,-11.648 -9.152,-20.8 -20.8,-20.8 -11.648,0 -20.8,9.152 -20.8,20.8 0,11.648 9.152,20.8 20.8,20.8 z m 0,45.76 c 11.648,0 20.8,-9.152 20.8,-20.8 0,-11.648 -9.152,-20.8 -20.8,-20.8 -11.648,0 -20.8,9.152 -20.8,20.8 0,11.648 9.152,20.8 20.8,20.8 z m 45.76,0 c 11.648,0 20.8,-9.152 20.8,-20.8 0,-11.648 -9.152,-20.8 -20.8,-20.8 -11.648,0 -20.8,9.152 -20.8,20.8 0,11.648 9.152,20.8 20.8,20.8 z m 45.76,0 c 11.648,0 20.8,-9.152 20.8,-20.8 0,-11.648 -9.152,-20.8 -20.8,-20.8 -11.648,0 -20.8,9.152 -20.8,20.8 0,11.648 9.152,20.8 20.8,20.8 z m 45.76,0 c 11.648,0 20.8,-9.152 20.8,-20.8 0,-11.648 -9.152,-20.8 -20.8,-20.8 -11.648,0 -20.8,9.152 -20.8,20.8 0,11.648 9.152,20.8 20.8,20.8 z M 41.6,-91.52 c 11.648,0 20.8,-9.152 20.8,-20.8 0,-11.648 -9.152,-20.8 -20.8,-20.8 -11.648,0 -20.8,9.152 -20.8,20.8 0,11.648 9.152,20.8 20.8,20.8 z m 0,45.76 c 11.648,0 20.8,-9.152 20.8,-20.8 0,-11.648 -9.152,-20.8 -20.8,-20.8 -11.648,0 -20.8,9.152 -20.8,20.8 0,11.648 9.152,20.8 20.8,20.8 z M 41.6,0 c 11.648,0 20.8,-9.152 20.8,-20.8 0,-11.648 -9.152,-20.8 -20.8,-20.8 -11.648,0 -20.8,9.152 -20.8,20.8 0,11.648 9.152,20.8 20.8,20.8 z m 45.76,0 c 11.648,0 20.8,-9.152 20.8,-20.8 0,-11.648 -9.152,-20.8 -20.8,-20.8 -11.648,0 -20.8,9.152 -20.8,20.8 0,11.648 9.152,20.8 20.8,20.8 z m 45.76,0 c 11.648,0 20.8,-9.152 20.8,-20.8 0,-11.648 -9.152,-20.8 -20.8,-20.8 -11.648,0 -20.8,9.152 -20.8,20.8 0,11.648 9.152,20.8 20.8,20.8 z m 45.76,0 c 11.648,0 20.8,-9.152 20.8,-20.8 0,-11.648 -9.152,-20.8 -20.8,-20.8 -11.648,0 -20.8,9.152 -20.8,20.8 0,11.648 9.152,20.8 20.8,20.8 z m 45.76,0 c 11.648,0 20.8,-9.152 20.8,-20.8 0,-11.648 -9.152,-20.8 -20.8,-20.8 -11.648,0 -20.8,9.152 -20.8,20.8 0,11.648 9.152,20.8 20.8,20.8 z"
         id="path610" /></g><path
       d="m 717,2106 c 0,-243.56 197.219,-441 440.5,-441 243.28,0 440.5,197.44 440.5,441 0,243.56 -197.22,441 -440.5,441 C 914.219,2547 717,2349.56 717,2106 Z"
       fill="#000000"
       fill-rule="evenodd"
       fill-opacity="1"
       id="path158" /><g
       aria-label="T"
       transform="translate(1024.38,2258)"
       id="text160"
       style="font-size:416px;font-family:'LED pixel Circle', 'LED pixel Circle_MSFontService', sans-serif;fill:#ffffff"><path
         d="m 41.6,-274.56 c 11.648,0 20.8,-9.152 20.8,-20.8 0,-11.648 -9.152,-20.8 -20.8,-20.8 -11.648,0 -20.8,9.152 -20.8,20.8 0,11.648 9.152,20.8 20.8,20.8 z m 45.76,0 c 11.648,0 20.8,-9.152 20.8,-20.8 0,-11.648 -9.152,-20.8 -20.8,-20.8 -11.648,0 -20.8,9.152 -20.8,20.8 0,11.648 9.152,20.8 20.8,20.8 z m 45.76,0 c 11.648,0 20.8,-9.152 20.8,-20.8 0,-11.648 -9.152,-20.8 -20.8,-20.8 -11.648,0 -20.8,9.152 -20.8,20.8 0,11.648 9.152,20.8 20.8,20.8 z m 45.76,0 c 11.648,0 20.8,-9.152 20.8,-20.8 0,-11.648 -9.152,-20.8 -20.8,-20.8 -11.648,0 -20.8,9.152 -20.8,20.8 0,11.648 9.152,20.8 20.8,20.8 z m 45.76,0 c 11.648,0 20.8,-9.152 20.8,-20.8 0,-11.648 -9.152,-20.8 -20.8,-20.8 -11.648,0 -20.8,9.152 -20.8,20.8 0,11.648 9.152,20.8 20.8,20.8 z m -91.52,45.76 c 11.648,0 20.8,-9.152 20.8,-20.8 0,-11.648 -9.152,-20.8 -20.8,-20.8 -11.648,0 -20.8,9.152 -20.8,20.8 0,11.648 9.152,20.8 20.8,20.8 z m 0,45.76 c 11.648,0 20.8,-9.152 20.8,-20.8 0,-11.648 -9.152,-20.8 -20.8,-20.8 -11.648,0 -20.8,9.152 -20.8,20.8 0,11.648 9.152,20.8 20.8,20.8 z m 0,45.76 c 11.648,0 20.8,-9.152 20.8,-20.8 0,-11.648 -9.152,-20.8 -20.8,-20.8 -11.648,0 -20.8,9.152 -20.8,20.8 0,11.648 9.152,20.8 20.8,20.8 z m 0,45.76 c 11.648,0 20.8,-9.152 20.8,-20.8 0,-11.648 -9.152,-20.8 -20.8,-20.8 -11.648,0 -20.8,9.152 -20.8,20.8 0,11.648 9.152,20.8 20.8,20.8 z m 0,45.76 c 11.648,0 20.8,-9.152 20.8,-20.8 0,-11.648 -9.152,-20.8 -20.8,-20.8 -11.648,0 -20.8,9.152 -20.8,20.8 0,11.648 9.152,20.8 20.8,20.8 z m 0,45.76 c 11.648,0 20.8,-9.152 20.8,-20.8 0,-11.648 -9.152,-20.8 -20.8,-20.8 -11.648,0 -20.8,9.152 -20.8,20.8 0,11.648 9.152,20.8 20.8,20.8 z"
         id="path574" /></g></g></svg>
