<svg width="7337" height="1957" xmlns="http://www.w3.org/2000/svg" xmlns:xlink="http://www.w3.org/1999/xlink" xml:space="preserve" overflow="hidden"><defs><clipPath id="clip0"><rect x="715" y="1663" width="7337" height="1957"/></clipPath></defs><g clip-path="url(#clip0)" transform="translate(-715 -1663)"><path d="M2865 2106C2865 1862.44 3061.99 1665 3305 1665 3548.01 1665 3745 1862.44 3745 2106 3745 2349.56 3548.01 2547 3305 2547 3061.99 2547 2865 2349.56 2865 2106Z" fill="#000000" fill-rule="evenodd" fill-opacity="1"/><text fill="#FFFFFF" fill-opacity="1" font-family="LED pixel Circle,LED pixel Circle_MSFontService,sans-serif" font-style="normal" font-variant="normal" font-weight="400" font-stretch="normal" font-size="293" text-anchor="start" direction="ltr" writing-mode="lr-tb" unicode-bidi="normal" text-decoration="none" transform="matrix(1 0 0 1 3211.23 2175)">E</text><path d="M1791 2106C1791 1862.44 1988.22 1665 2231.5 1665 2474.78 1665 2672 1862.44 2672 2106 2672 2349.56 2474.78 2547 2231.5 2547 1988.22 2547 1791 2349.56 1791 2106Z" fill="#000000" fill-rule="evenodd" fill-opacity="1"/><text fill="#FFFFFF" fill-opacity="1" font-family="LED pixel Circle,LED pixel Circle_MSFontService,sans-serif" font-style="normal" font-variant="normal" font-weight="400" font-stretch="normal" font-size="416" text-anchor="start" direction="ltr" writing-mode="lr-tb" unicode-bidi="normal" text-decoration="none" transform="matrix(1 0 0 1 2098.32 2258)">H</text><path d="M2865 2106C2865 1862.44 3061.99 1665 3305 1665 3548.01 1665 3745 1862.44 3745 2106 3745 2349.56 3548.01 2547 3305 2547 3061.99 2547 2865 2349.56 2865 2106Z" fill="#000000" fill-rule="evenodd" fill-opacity="1"/><text fill="#FFFFFF" fill-opacity="1" font-family="LED pixel Circle,LED pixel Circle_MSFontService,sans-serif" font-style="normal" font-variant="normal" font-weight="400" font-stretch="normal" font-size="416" text-anchor="start" direction="ltr" writing-mode="lr-tb" unicode-bidi="normal" text-decoration="none" transform="matrix(1 0 0 1 3172.27 2258)">E</text><path d="M3939 2106C3939 1862.44 4135.99 1665 4379 1665 4622.01 1665 4819 1862.44 4819 2106 4819 2349.56 4622.01 2547 4379 2547 4135.99 2547 3939 2349.56 3939 2106Z" fill="#000000" fill-rule="evenodd" fill-opacity="1"/><text fill="#FFFFFF" fill-opacity="1" font-family="LED pixel Circle,LED pixel Circle_MSFontService,sans-serif" font-style="normal" font-variant="normal" font-weight="400" font-stretch="normal" font-size="416" text-anchor="start" direction="ltr" writing-mode="lr-tb" unicode-bidi="normal" text-decoration="none" transform="matrix(1 0 0 1 4246.22 2258)">G</text><path d="M5013 2106C5013 1862.44 5209.99 1665 5453 1665 5696.01 1665 5893 1862.44 5893 2106 5893 2349.56 5696.01 2547 5453 2547 5209.99 2547 5013 2349.56 5013 2106Z" fill="#000000" fill-rule="evenodd" fill-opacity="1"/><text fill="#FFFFFF" fill-opacity="1" font-family="LED pixel Circle,LED pixel Circle_MSFontService,sans-serif" font-style="normal" font-variant="normal" font-weight="400" font-stretch="normal" font-size="416" text-anchor="start" direction="ltr" writing-mode="lr-tb" unicode-bidi="normal" text-decoration="none" transform="matrix(1 0 0 1 5320.17 2258)">A</text><path d="M6087 2106C6087 1862.44 6283.99 1665 6527 1665 6770.01 1665 6967 1862.44 6967 2106 6967 2349.56 6770.01 2547 6527 2547 6283.99 2547 6087 2349.56 6087 2106Z" fill="#000000" fill-rule="evenodd" fill-opacity="1"/><text fill="#FFFFFF" fill-opacity="1" font-family="LED pixel Circle,LED pixel Circle_MSFontService,sans-serif" font-style="normal" font-variant="normal" font-weight="400" font-stretch="normal" font-size="416" text-anchor="start" direction="ltr" writing-mode="lr-tb" unicode-bidi="normal" text-decoration="none" transform="matrix(1 0 0 1 6394.12 2258)">M</text><path d="M7161 2106C7161 1862.44 7357.99 1665 7601 1665 7844.01 1665 8041 1862.44 8041 2106 8041 2349.56 7844.01 2547 7601 2547 7357.99 2547 7161 2349.56 7161 2106Z" fill="#000000" fill-rule="evenodd" fill-opacity="1"/><text fill="#FFFFFF" fill-opacity="1" font-family="LED pixel Circle,LED pixel Circle_MSFontService,sans-serif" font-style="normal" font-variant="normal" font-weight="400" font-stretch="normal" font-size="416" text-anchor="start" direction="ltr" writing-mode="lr-tb" unicode-bidi="normal" text-decoration="none" transform="matrix(1 0 0 1 7468.07 2258)">E</text><path d="M1799 3127C1799 2883.44 1996.22 2686 2239.5 2686 2482.78 2686 2680 2883.44 2680 3127 2680 3370.56 2482.78 3568 2239.5 3568 1996.22 3568 1799 3370.56 1799 3127Z" fill="#000000" fill-rule="evenodd" fill-opacity="1"/><text fill="#FFFFFF" fill-opacity="1" font-family="LED pixel Circle,LED pixel Circle_MSFontService,sans-serif" font-style="normal" font-variant="normal" font-weight="400" font-stretch="normal" font-size="416" text-anchor="start" direction="ltr" writing-mode="lr-tb" unicode-bidi="normal" text-decoration="none" transform="matrix(1 0 0 1 2106.43 3279)">O</text><path d="M2873 3127C2873 2883.44 3070.22 2686 3313.5 2686 3556.78 2686 3754 2883.44 3754 3127 3754 3370.56 3556.78 3568 3313.5 3568 3070.22 3568 2873 3370.56 2873 3127Z" fill="#000000" fill-rule="evenodd" fill-opacity="1"/><text fill="#FFFFFF" fill-opacity="1" font-family="LED pixel Circle,LED pixel Circle_MSFontService,sans-serif" font-style="normal" font-variant="normal" font-weight="400" font-stretch="normal" font-size="416" text-anchor="start" direction="ltr" writing-mode="lr-tb" unicode-bidi="normal" text-decoration="none" transform="matrix(1 0 0 1 3180.38 3279)">F</text><path d="M3947 3127C3947 2883.44 4144.22 2686 4387.5 2686 4630.78 2686 4828 2883.44 4828 3127 4828 3370.56 4630.78 3568 4387.5 3568 4144.22 3568 3947 3370.56 3947 3127Z" fill="#000000" fill-rule="evenodd" fill-opacity="1"/><text fill="#FFFFFF" fill-opacity="1" font-family="LED pixel Circle,LED pixel Circle_MSFontService,sans-serif" font-style="normal" font-variant="normal" font-weight="400" font-stretch="normal" font-size="416" text-anchor="start" direction="ltr" writing-mode="lr-tb" unicode-bidi="normal" text-decoration="none" transform="matrix(1 0 0 1 4254.33 3279)">L</text><path d="M5021 3127C5021 2883.44 5217.99 2686 5461 2686 5704.01 2686 5901 2883.44 5901 3127 5901 3370.56 5704.01 3568 5461 3568 5217.99 3568 5021 3370.56 5021 3127Z" fill="#000000" fill-rule="evenodd" fill-opacity="1"/><text fill="#FFFFFF" fill-opacity="1" font-family="LED pixel Circle,LED pixel Circle_MSFontService,sans-serif" font-style="normal" font-variant="normal" font-weight="400" font-stretch="normal" font-size="416" text-anchor="start" direction="ltr" writing-mode="lr-tb" unicode-bidi="normal" text-decoration="none" transform="matrix(1 0 0 1 5373.82 3279)">I</text><path d="M6095 3127C6095 2883.44 6291.99 2686 6535 2686 6778.01 2686 6975 2883.44 6975 3127 6975 3370.56 6778.01 3568 6535 3568 6291.99 3568 6095 3370.56 6095 3127Z" fill="#000000" fill-rule="evenodd" fill-opacity="1"/><text fill="#FFFFFF" fill-opacity="1" font-family="LED pixel Circle,LED pixel Circle_MSFontService,sans-serif" font-style="normal" font-variant="normal" font-weight="400" font-stretch="normal" font-size="416" text-anchor="start" direction="ltr" writing-mode="lr-tb" unicode-bidi="normal" text-decoration="none" transform="matrix(1 0 0 1 6402.23 3279)">F</text><path d="M7169 3127C7169 2883.44 7365.99 2686 7609 2686 7852.01 2686 8049 2883.44 8049 3127 8049 3370.56 7852.01 3568 7609 3568 7365.99 3568 7169 3370.56 7169 3127Z" fill="#000000" fill-rule="evenodd" fill-opacity="1"/><text fill="#FFFFFF" fill-opacity="1" font-family="LED pixel Circle,LED pixel Circle_MSFontService,sans-serif" font-style="normal" font-variant="normal" font-weight="400" font-stretch="normal" font-size="416" text-anchor="start" direction="ltr" writing-mode="lr-tb" unicode-bidi="normal" text-decoration="none" transform="matrix(1 0 0 1 7476.18 3279)">E</text><path d="M717 2106C717 1862.44 914.219 1665 1157.5 1665 1400.78 1665 1598 1862.44 1598 2106 1598 2349.56 1400.78 2547 1157.5 2547 914.219 2547 717 2349.56 717 2106Z" fill="#000000" fill-rule="evenodd" fill-opacity="1"/><text fill="#FFFFFF" fill-opacity="1" font-family="LED pixel Circle,LED pixel Circle_MSFontService,sans-serif" font-style="normal" font-variant="normal" font-weight="400" font-stretch="normal" font-size="416" text-anchor="start" direction="ltr" writing-mode="lr-tb" unicode-bidi="normal" text-decoration="none" transform="matrix(1 0 0 1 1024.38 2258)">T</text></g></svg>